#!OML:ASF F:\Work\Patient Classification 1\justin\Session 1\justin.ASF
:FULLY-SPECIFIED
:DEGREES
5832
root 0.905189 17.4994 2.88909 12.4445 55.5624 10.543
lowerback 15.8393 -0.925949 3.69758
upperback -1.14317 -0.10564 3.56505
thorax -10.1858 -0.114555 1.80309
lowerneck -3.54117 -15.3019 -22.1139
upperneck -4.84349 -19.8248 22.2522
head 3.7426 -9.61496 8.81665
rclavicle -1.00983e-013 -6.20208e-014
rhumerus 8.50899 -0.702025 -50.2697
rradius 108.104
rwrist -17.3895
rhand -8.67896 23.2678
rfingers 7.12502
rthumb 17.2555 -5.98611
lclavicle -1.00983e-013 -6.20208e-014
lhumerus 12.6154 -34.4125 90.7903
lradius 125.115
lwrist 5.18963
lhand -11.0388 3.9864
lfingers 7.12502
lthumb 14.9831 33.4244
rfemur -26.834 -8.10535 3.42516
rtibia 45.853
rfoot -11.8847 -17.1049
rtoes -10.051
lfemur -2.81665 0.705144 -8.30273
ltibia 29.471
lfoot -11.0987 -11.2584
ltoes -35.0005
5833
root 0.94156 17.5067 2.82892 12.0134 55.2188 10.08
lowerback 15.6864 -1.14415 3.75636
upperback -1.04803 -0.38441 3.68349
thorax -9.99179 -0.24413 1.95986
lowerneck -3.89955 -15.157 -22.1571
upperneck -4.61897 -19.5762 22.1195
head 3.79973 -9.47055 8.79448
rclavicle -6.91771e-014 -9.54166e-015
rhumerus 7.00323 -0.377195 -52.1219
rradius 110.228
rwrist -16.0856
rhand -10.9783 18.9341
rfingers 7.12502
rthumb 15.0413 -10.4995
lclavicle -6.91771e-014 -9.54166e-015
lhumerus 11.8988 -33.7524 90.8567
lradius 125.367
lwrist 5.15231
lhand -10.7824 4.48964
lfingers 7.12502
lthumb 15.2301 33.909
rfemur -26.8209 -8.146 3.48384
rtibia 45.6223
rfoot -11.2467 -16.9496
rtoes -11.635
lfemur -2.51603 0.20633 -8.39086
ltibia 29.3889
lfoot -11.0424 -11.0245
ltoes -33.2206
5834
root 0.975045 17.5077 2.77302 11.4633 54.7984 9.47381
lowerback 15.4935 -1.31812 3.74795
upperback -0.936244 -0.616644 3.84343
thorax -9.75493 -0.346871 2.18491
lowerneck -4.08746 -14.9915 -22.3887
upperneck -4.50707 -19.3251 22.2947
head 3.85621 -9.33292 8.91205
rclavicle -8.94531e-014 -1.11319e-014
rhumerus 5.80966 -1.39992 -53.9807
rradius 110.907
rwrist -19.0799
rhand -8.83037 24.4378
rfingers 7.12502
rthumb 17.1097 -4.82878
lclavicle -8.94531e-014 -1.11319e-014
lhumerus 11.0964 -33.1313 91.0256
lradius 125.695
lwrist 5.2116
lhand -10.3418 5.10648
lfingers 7.12502
lthumb 15.6545 34.4931
rfemur -26.8769 -7.90311 3.56928
rtibia 45.4136
rfoot -10.0448 -16.8549
rtoes -19.4506
lfemur -2.17302 -0.266317 -8.36625
ltibia 29.3453
lfoot -11.0338 -10.8788
ltoes -31.174
5835
root 1.0033 17.5086 2.72632 11.0396 54.2102 8.98429
lowerback 15.3406 -1.36445 3.58666
upperback -0.925354 -0.719787 3.85015
thorax -9.65151 -0.388152 2.30252
lowerneck -4.11394 -14.872 -22.0839
upperneck -4.34887 -19.1869 22.2351
head 3.84124 -9.2669 8.87003
rclavicle -5.1684e-015 1.43125e-014
rhumerus 4.28855 -1.83905 -55.6547
rradius 112.443
rwrist -19.6233
rhand -8.85844 24.498
rfingers 7.12502
rthumb 17.0827 -4.77101
lclavicle -5.1684e-015 1.43125e-014
lhumerus 9.99394 -32.8458 91.1698
lradius 126.118
lwrist 5.07626
lhand -10.3565 5.38711
lfingers 7.12502
lthumb 15.6403 34.7749
rfemur -26.9806 -7.59953 3.67986
rtibia 45.2008
rfoot -10.3187 -16.674
rtoes -12.7674
lfemur -1.875 -0.243801 -8.32944
ltibia 29.3591
lfoot -11.1104 -11.0149
ltoes -29.4284
5836
root 1.03516 17.5123 2.67382 10.8868 53.6478 8.83402
lowerback 15.2889 -1.41788 3.45804
upperback -1.00509 -0.835531 3.68044
thorax -9.70774 -0.44458 2.2192
lowerneck -3.99741 -14.746 -21.4986
upperneck -4.20718 -19.0681 21.9884
head 3.75148 -9.22268 8.73611
rclavicle 2.38542e-015 -3.97569e-014
rhumerus 2.54766 -2.6397 -57.3528
rradius 113.773
rwrist -19.8603
rhand -8.42816 25.3835
rfingers 7.12502
rthumb 17.4968 -3.84914
lclavicle 2.38542e-015 -3.97569e-014
lhumerus 8.42537 -32.7874 91.2776
lradius 126.679
lwrist 4.74855
lhand -10.9269 5.13968
lfingers 7.12502
lthumb 15.0909 34.5696
rfemur -27.0728 -7.31877 3.48571
rtibia 44.9477
rfoot -10.0833 -16.4322
rtoes -11.9694
lfemur -1.67652 -0.235273 -8.5245
ltibia 29.5217
lfoot -11.296 -11.1807
ltoes -27.827
5837
root 1.07119 17.5074 2.61059 10.6295 53.0642 8.55565
lowerback 15.2625 -1.54051 3.51423
upperback -1.08752 -1.0017 3.55179
thorax -9.78479 -0.532652 2.08898
lowerneck -4.04471 -14.6094 -21.2338
upperneck -3.85346 -18.9229 21.8258
head 3.78664 -9.14986 8.66137
rclavicle -7.95139e-015 1.74931e-014
rhumerus 0.854833 -3.25028 -58.9432
rradius 115.135
rwrist -19.712
rhand -8.68842 25.2991
rfingers 7.12502
rthumb 17.2463 -3.95567
lclavicle -7.95139e-015 1.74931e-014
lhumerus 7.00559 -32.4834 91.3832
lradius 126.975
lwrist 4.52348
lhand -11.379 4.72675
lfingers 7.12502
lthumb 14.6554 34.1888
rfemur -27.262 -6.93466 3.27378
rtibia 44.7162
rfoot -9.35938 -16.1994
rtoes -17.4186
lfemur -1.55543 -0.51732 -8.76439
ltibia 29.851
lfoot -11.7181 -10.9818
ltoes -26.5061
5838
root 1.10416 17.4871 2.53954 10.4272 52.3416 8.24812
lowerback 15.0939 -1.60284 3.44866
upperback -1.06021 -1.10515 3.59027
thorax -9.65477 -0.577621 2.18495
lowerneck -4.2172 -14.4618 -21.3414
upperneck -3.6009 -18.7173 21.8305
head 3.85686 -9.03655 8.6964
rclavicle -4.92986e-014 1.27222e-014
rhumerus -0.452388 -3.49729 -60.2542
rradius 116.857
rwrist -19.4086
rhand -9.27957 24.4995
rfingers 7.12502
rthumb 16.6773 -4.80411
lclavicle -4.92986e-014 1.27222e-014
lhumerus 6.32833 -31.9393 91.5981
lradius 126.965
lwrist 4.49299
lhand -11.3618 4.86182
lfingers 7.12502
lthumb 14.6719 34.3227
rfemur -27.6231 -6.81192 3.19533
rtibia 44.5491
rfoot -8.29921 -15.8641
rtoes -24.164
lfemur -1.55512 -0.8125 -9.0715
ltibia 30.2515
lfoot -12.2899 -10.5182
ltoes -25.6068
5839
root 1.13601 17.4605 2.46599 10.3333 51.6464 8.09438
lowerback 14.992 -1.64227 3.28531
upperback -1.02759 -1.19078 3.6398
thorax -9.55454 -0.608886 2.34577
lowerneck -4.22423 -14.2741 -21.3923
upperneck -3.63092 -18.4534 21.8697
head 3.80456 -8.90722 8.76294
rclavicle 5.4467e-014 2.8625e-014
rhumerus -1.71329 -3.75228 -61.586
rradius 118.646
rwrist -19.0781
rhand -9.71709 24.1354
rfingers 7.12502
rthumb 16.2561 -5.20311
lclavicle 5.4467e-014 2.8625e-014
lhumerus 5.55071 -31.4833 91.968
lradius 127.144
lwrist 4.4764
lhand -10.642 5.66316
lfingers 7.12502
lthumb 15.3653 35.0722
rfemur -28.0073 -6.89911 3.02271
rtibia 44.5053
rfoot -7.60851 -15.3149
rtoes -26.382
lfemur -1.52443 -1.17079 -9.44687
ltibia 30.6947
lfoot -12.8433 -10.2403
ltoes -23.6839
5840
root 1.1705 17.4471 2.3991 10.1359 50.9033 7.94328
lowerback 15.0539 -1.65441 3.11048
upperback -1.06171 -1.24128 3.58469
thorax -9.62349 -0.626751 2.40025
lowerneck -4.28667 -14.1495 -21.1138
upperneck -3.45009 -18.2997 21.7308
head 3.79298 -8.8304 8.69692
rclavicle -1.51076e-014 3.18055e-014
rhumerus -3.33814 -4.4006 -63.0798
rradius 120.187
rwrist -19.0731
rhand -9.44966 25.1693
rfingers 7.12502
rthumb 16.5136 -4.148
lclavicle -1.51076e-014 3.18055e-014
lhumerus 4.41882 -31.1387 92.344
lradius 127.537
lwrist 4.7932
lhand -9.74373 6.19429
lfingers 7.12502
lthumb 16.2304 35.5349
rfemur -28.3406 -6.69691 2.77952
rtibia 44.5955
rfoot -7.25163 -14.7636
rtoes -26.1329
lfemur -1.30429 -1.35643 -9.78767
ltibia 31.1171
lfoot -13.4682 -10.2358
ltoes -21.2836
5841
root 1.20383 17.4334 2.32593 9.93619 49.9855 7.76551
lowerback 15.0237 -1.67534 2.87895
upperback -1.00184 -1.31816 3.57437
thorax -9.53295 -0.652751 2.53414
lowerneck -4.79822 -14.0489 -21.3145
upperneck -2.91691 -18.1383 21.931
head 4.04275 -8.71309 8.77219
rclavicle -1.74931e-014 -2.70347e-014
rhumerus -4.82309 -4.8792 -64.3758
rradius 121.812
rwrist -19.2822
rhand -9.4401 26.3249
rfingers 7.12502
rthumb 16.5228 -2.99158
lclavicle -1.74931e-014 -2.70347e-014
lhumerus 3.50615 -30.5708 92.5429
lradius 127.813
lwrist 4.97263
lhand -9.70924 5.96401
lfingers 7.12502
lthumb 16.2636 35.3019
rfemur -28.8584 -6.31162 2.53125
rtibia 44.7861
rfoot -6.87231 -14.2153
rtoes -26.5918
lfemur -1.07608 -1.22834 -10.1625
ltibia 31.435
lfoot -14.1095 -10.1887
ltoes -19.2448
5842
root 1.23868 17.4061 2.24447 9.79031 49.06 7.66036
lowerback 14.9052 -1.79659 2.61186
upperback -0.833062 -1.53499 3.63604
thorax -9.26565 -0.742381 2.78971
lowerneck -5.74368 -13.9571 -21.9488
upperneck -2.14738 -17.922 22.3102
head 4.48281 -8.53547 8.95197
rclavicle -8.34896e-015 -8.26944e-014
rhumerus -6.22359 -4.88544 -65.5269
rradius 123.757
rwrist -19.4866
rhand -10.0412 27.0599
rfingers 7.12502
rthumb 15.944 -2.30383
lclavicle -8.34896e-015 -8.26944e-014
lhumerus 2.61368 -29.7431 92.6189
lradius 127.981
lwrist 4.40801
lhand -10.0853 5.46962
lfingers 7.12502
lthumb 15.9015 34.8368
rfemur -29.4131 -6.19975 2.23882
rtibia 44.9865
rfoot -6.58892 -13.51
rtoes -27.5739
lfemur -0.797624 -1.34906 -10.6972
ltibia 31.6586
lfoot -14.8044 -9.90841
ltoes -16.4667
5843
root 1.27506 17.3783 2.17631 9.47065 48.3111 7.56308
lowerback 14.9685 -1.94956 2.34894
upperback -0.688185 -1.78655 3.65128
thorax -9.12692 -0.850662 3.0085
lowerneck -6.27981 -13.8115 -22.1105
upperneck -1.74144 -17.6691 22.4338
head 4.6662 -8.37361 9.02376
rclavicle 1.59028e-014 -1.90833e-014
rhumerus -7.17553 -5.04114 -66.69
rradius 124.938
rwrist -19.8047
rhand -10.2043 28.2383
rfingers 7.12502
rthumb 15.7869 -1.13791
lclavicle 1.59028e-014 -1.90833e-014
lhumerus 1.55841 -28.9919 92.7305
lradius 128.454
lwrist 4.45893
lhand -9.61841 5.85057
lfingers 7.12502
lthumb 16.3511 35.1813
rfemur -29.6875 -6.10586 1.92594
rtibia 45.204
rfoot -6.62467 -12.8013
rtoes -26.1203
lfemur -0.555308 -1.05842 -11.203
ltibia 31.9417
lfoot -15.9386 -9.15427
ltoes -18.8494
